<svg width="88" height="86" viewBox="0 0 88 86" fill="none" xmlns="http://www.w3.org/2000/svg" xmlns:xlink="http://www.w3.org/1999/xlink">
<g filter="url(#filter0_dii)">
<g clip-path="url(#clip0)">
<rect x="13.3511" y="85.9771" width="73.6878" height="75.2009" rx="10.273" transform="rotate(-100.045 13.3511 85.9771)" fill="white"/>
<g clip-path="url(#clip1)">
</g>
<rect x="13.4685" y="91.1495" width="79.5878" height="76.7741" transform="rotate(-100.045 13.4685 91.1495)" stroke="black" stroke-width="1.57315"/>
<g opacity="0.69">
<rect x="14.1058" y="90.2378" width="78.0147" height="75.2009" transform="rotate(-100.045 14.1058 90.2378)" fill="url(#pattern0)"/>
<g filter="url(#filter1_b)">
<rect x="14.1057" y="90.2368" width="78.0147" height="75.2009" transform="rotate(-100.045 14.1057 90.2368)" fill="url(#paint0_linear)"/>
</g>
</g>
<g style="mix-blend-mode:overlay" opacity="0.72">
<rect x="14.1058" y="90.2378" width="78.0147" height="75.2009" transform="rotate(-100.045 14.1058 90.2378)" fill="url(#paint1_linear)"/>
</g>
<path d="M43.8279 52.0958L37.225 52.0958L37.225 60.7739L33.8292 60.7739L33.8292 52.0958L15.1994 52.0958L15.1994 49.6432L32.6972 27.7592L36.4704 27.7592L19.5857 49.0773L33.9235 49.0773L33.9235 41.4367L37.225 41.4367L37.225 49.0773L43.8279 49.0773L43.8279 52.0958ZM68.7729 45.6815L60.0004 45.6815L60.0004 54.2653L57.0291 54.2653L57.0291 45.6815L48.2566 45.6815L48.2566 42.8988L57.0291 42.8988L57.0291 34.2678L60.0004 34.2678L60.0004 42.8988L68.7729 42.8988L68.7729 45.6815Z" fill="white"/>
</g>
<rect x="13.8214" y="85.3043" width="72.527" height="74.0401" rx="9.69256" transform="rotate(-100.045 13.8214 85.3043)" stroke="url(#paint2_linear)" stroke-width="1.16085"/>
</g>
<defs>
<filter id="filter0_dii" x="-213.451" y="-68.9169" width="514.798" height="513.572" filterUnits="userSpaceOnUse" color-interpolation-filters="sRGB">
<feFlood flood-opacity="0" result="BackgroundImageFix"/>
<feColorMatrix in="SourceAlpha" type="matrix" values="0 0 0 0 0 0 0 0 0 0 0 0 0 0 0 0 0 0 127 0"/>
<feOffset dy="144.73"/>
<feGaussianBlur stdDeviation="106.974"/>
<feColorMatrix type="matrix" values="0 0 0 0 0 0 0 0 0 0 0 0 0 0 0 0 0 0 0.05 0"/>
<feBlend mode="normal" in2="BackgroundImageFix" result="effect1_dropShadow"/>
<feBlend mode="normal" in="SourceGraphic" in2="effect1_dropShadow" result="shape"/>
<feColorMatrix in="SourceAlpha" type="matrix" values="0 0 0 0 0 0 0 0 0 0 0 0 0 0 0 0 0 0 127 0" result="hardAlpha"/>
<feOffset dy="6.29261"/>
<feGaussianBlur stdDeviation="3.1463"/>
<feComposite in2="hardAlpha" operator="arithmetic" k2="-1" k3="1"/>
<feColorMatrix type="matrix" values="0 0 0 0 1 0 0 0 0 1 0 0 0 0 1 0 0 0 0.15 0"/>
<feBlend mode="normal" in2="shape" result="effect2_innerShadow"/>
<feColorMatrix in="SourceAlpha" type="matrix" values="0 0 0 0 0 0 0 0 0 0 0 0 0 0 0 0 0 0 127 0" result="hardAlpha"/>
<feOffset dx="-3.1463" dy="-3.1463"/>
<feGaussianBlur stdDeviation="3.1463"/>
<feComposite in2="hardAlpha" operator="arithmetic" k2="-1" k3="1"/>
<feColorMatrix type="matrix" values="0 0 0 0 0 0 0 0 0 0 0 0 0 0 0 0 0 0 0.04 0"/>
<feBlend mode="normal" in2="effect2_innerShadow" result="effect3_innerShadow"/>
</filter>
<pattern id="pattern0" patternContentUnits="objectBoundingBox" width="34.6835" height="22.5929">
</pattern>
<filter id="filter1_b" x="-93.8911" y="-94.0878" width="276.434" height="278.714" filterUnits="userSpaceOnUse" color-interpolation-filters="sRGB">
<feFlood flood-opacity="0" result="BackgroundImageFix"/>
<feGaussianBlur in="BackgroundImage" stdDeviation="47.1946"/>
<feComposite in2="SourceAlpha" operator="in" result="effect1_backgroundBlur"/>
<feBlend mode="normal" in="SourceGraphic" in2="effect1_backgroundBlur" result="shape"/>
</filter>
<linearGradient id="paint0_linear" x1="28.0157" y1="110.402" x2="81.5841" y2="161.422" gradientUnits="userSpaceOnUse">
<stop stop-color="#1162FF"/>
<stop offset="0.552083" stop-color="#9137EF"/>
<stop offset="1" stop-color="#FF35D3"/>
</linearGradient>
<linearGradient id="paint1_linear" x1="16.1016" y1="85.5029" x2="108.229" y2="126.427" gradientUnits="userSpaceOnUse">
<stop stop-color="white"/>
<stop offset="1" stop-opacity="0"/>
</linearGradient>
<linearGradient id="paint2_linear" x1="13.3511" y1="82.0777" x2="69.4818" y2="114.242" gradientUnits="userSpaceOnUse">
<stop stop-color="white"/>
<stop offset="1" stop-color="white" stop-opacity="0"/>
</linearGradient>
<clipPath id="clip0">
<rect x="13.3511" y="85.9771" width="73.6878" height="75.2009" rx="10.273" transform="rotate(-100.045 13.3511 85.9771)" fill="white"/>
</clipPath>
<clipPath id="clip1">
</clipPath>
</defs>
</svg>
