<svg viewBox="0 0 88 87" fill="none" xmlns="http://www.w3.org/2000/svg" xmlns:xlink="http://www.w3.org/1999/xlink">
<g filter="url(#filter0_dii)">
<g clip-path="url(#clip0)">
<rect x="13.3513" y="86.0493" width="73.6878" height="75.2009" rx="10.273" transform="rotate(-100.045 13.3513 86.0493)" fill="white"/>
<g clip-path="url(#clip1)">
</g>
<rect x="13.4686" y="91.2218" width="79.5878" height="76.7741" transform="rotate(-100.045 13.4686 91.2218)" stroke="black" stroke-width="1.57315"/>
<g opacity="0.69">
<rect x="14.106" y="90.3101" width="78.0147" height="75.2009" transform="rotate(-100.045 14.106 90.3101)" fill="url(#pattern0)"/>
<g filter="url(#filter1_b)">
<rect x="14.1058" y="90.3091" width="78.0147" height="75.2009" transform="rotate(-100.045 14.1058 90.3091)" fill="url(#paint0_linear)"/>
</g>
</g>
<g style="mix-blend-mode:overlay" opacity="0.72">
<rect x="14.106" y="90.3101" width="78.0147" height="75.2009" transform="rotate(-100.045 14.106 90.3101)" fill="url(#paint1_linear)"/>
</g>
<path d="M10.2232 60.6023C9.09222 60.6023 8.07282 60.3493 7.16503 59.8434C6.25724 59.3225 5.54292 58.6082 5.02206 57.7004C4.5012 56.7926 4.24077 55.7658 4.24077 54.6199C4.24077 53.474 4.5012 52.4471 5.02206 51.5393C5.54292 50.6316 6.25724 49.9247 7.16503 49.4187C8.07282 48.9127 9.09222 48.6597 10.2232 48.6597C11.3542 48.6597 12.3736 48.9127 13.2814 49.4187C14.1892 49.9247 14.8961 50.6316 15.4021 51.5393C15.9229 52.4471 16.1834 53.474 16.1834 54.6199C16.1834 55.7658 15.9229 56.7926 15.4021 57.7004C14.8961 58.6082 14.1892 59.3225 13.2814 59.8434C12.3736 60.3493 11.3542 60.6023 10.2232 60.6023ZM10.2232 59.196C11.0566 59.196 11.8007 59.01 12.4555 58.6379C13.1252 58.251 13.646 57.7078 14.0181 57.0084C14.3901 56.309 14.5761 55.5128 14.5761 54.6199C14.5761 53.727 14.3901 52.9308 14.0181 52.2314C13.646 51.5319 13.1252 50.9962 12.4555 50.6241C11.8007 50.2372 11.0566 50.0437 10.2232 50.0437C9.38985 50.0437 8.63832 50.2372 7.96864 50.6241C7.31385 50.9962 6.79299 51.5319 6.40606 52.2314C6.03402 52.9308 5.84799 53.727 5.84799 54.6199C5.84799 55.5128 6.03402 56.309 6.40606 57.0084C6.79299 57.7078 7.31385 58.251 7.96864 58.6379C8.63832 59.01 9.38985 59.196 10.2232 59.196ZM27.394 50.1553L22.9518 50.1553L22.9518 60.4907L21.3669 60.4907L21.3669 50.1553L16.9247 50.1553L16.9247 48.749L27.394 48.749L27.394 50.1553ZM43.5611 40.729C45.7306 40.729 47.6486 41.1378 49.3151 41.9553C51.013 42.7728 52.3336 43.9362 53.2769 45.4454C54.2201 46.9232 54.6918 48.6526 54.6918 50.6335C54.6918 52.6458 54.2044 54.4223 53.2297 55.963C52.255 57.5037 50.9029 58.6985 49.1736 59.5474C47.4757 60.365 45.5577 60.7737 43.4196 60.7737C39.0491 60.7737 35.7004 59.3431 33.3737 56.4818C31.0469 53.5891 29.8835 49.5172 29.8835 44.2663C29.8835 40.5875 30.5124 37.4747 31.7701 34.9279C33.0278 32.381 34.7886 30.463 37.0525 29.1739C39.3163 27.8533 41.9575 27.193 44.976 27.193C48.246 27.193 50.8558 27.7904 52.8052 28.9852L51.4375 31.7207C49.8653 30.6831 47.7272 30.1643 45.0232 30.1643C41.3758 30.1643 38.5145 31.3277 36.4393 33.6544C34.3641 35.9497 33.3265 39.2984 33.3265 43.7004C33.3265 44.4864 33.3737 45.3825 33.468 46.3887C34.2855 44.5965 35.5904 43.213 37.3826 42.2383C39.1748 41.2321 41.2343 40.729 43.5611 40.729ZM43.2781 57.8967C45.6677 57.8967 47.6015 57.2521 49.0793 55.963C50.5885 54.6424 51.3431 52.8973 51.3431 50.7278C51.3431 48.5582 50.5885 46.8289 49.0793 45.5398C47.6015 44.2506 45.5891 43.606 43.0423 43.606C41.3758 43.606 39.898 43.9205 38.6089 44.5493C37.3512 45.1782 36.3607 46.0428 35.6375 47.1433C34.9144 48.2438 34.5528 49.4701 34.5528 50.8221C34.5528 52.0798 34.8829 53.2432 35.5432 54.3122C36.2349 55.3813 37.2411 56.246 38.5617 56.9063C39.8823 57.5666 41.4544 57.8967 43.2781 57.8967ZM71.7828 60.7737C69.236 60.7737 66.9564 60.0977 64.944 58.7457C62.9631 57.3936 61.4067 55.4599 60.2748 52.9445C59.1743 50.3976 58.6241 47.4106 58.6241 43.9833C58.6241 40.5561 59.1743 37.5848 60.2748 35.0694C61.4067 32.5225 62.9631 30.5731 64.944 29.221C66.9564 27.869 69.236 27.193 71.7828 27.193C74.3297 27.193 76.5935 27.869 78.5744 29.221C80.5867 30.5731 82.1589 32.5225 83.2908 35.0694C84.4227 37.5848 84.9887 40.5561 84.9887 43.9833C84.9887 47.4106 84.4227 50.3976 83.2908 52.9445C82.1589 55.4599 80.5867 57.3936 78.5744 58.7457C76.5935 60.0977 74.3297 60.7737 71.7828 60.7737ZM71.7828 57.6609C73.7008 57.6609 75.383 57.1264 76.8293 56.0573C78.3072 54.9883 79.4548 53.4319 80.2723 51.3881C81.0898 49.3443 81.4986 46.8761 81.4986 43.9833C81.4986 41.0906 81.0898 38.6224 80.2723 36.5786C79.4548 34.5348 78.3072 32.9784 76.8293 31.9094C75.383 30.8403 73.7008 30.3058 71.7828 30.3058C69.8648 30.3058 68.1669 30.8403 66.6891 31.9094C65.2427 32.9784 64.1108 34.5348 63.2933 36.5786C62.4758 38.6224 62.067 41.0906 62.067 43.9833C62.067 46.8761 62.4758 49.3443 63.2933 51.3881C64.1108 53.4319 65.2427 54.9883 66.6891 56.0573C68.1669 57.1264 69.8648 57.6609 71.7828 57.6609Z" fill="white"/>
</g>
<rect x="13.8216" y="85.3765" width="72.527" height="74.0401" rx="9.69256" transform="rotate(-100.045 13.8216 85.3765)" stroke="url(#paint2_linear)" stroke-width="1.16085"/>
</g>
<defs>
<filter id="filter0_dii" x="-213.45" y="-68.8447" width="514.798" height="513.572" filterUnits="userSpaceOnUse" color-interpolation-filters="sRGB">
<feFlood flood-opacity="0" result="BackgroundImageFix"/>
<feColorMatrix in="SourceAlpha" type="matrix" values="0 0 0 0 0 0 0 0 0 0 0 0 0 0 0 0 0 0 127 0"/>
<feOffset dy="144.73"/>
<feGaussianBlur stdDeviation="106.974"/>
<feColorMatrix type="matrix" values="0 0 0 0 0 0 0 0 0 0 0 0 0 0 0 0 0 0 0.05 0"/>
<feBlend mode="normal" in2="BackgroundImageFix" result="effect1_dropShadow"/>
<feBlend mode="normal" in="SourceGraphic" in2="effect1_dropShadow" result="shape"/>
<feColorMatrix in="SourceAlpha" type="matrix" values="0 0 0 0 0 0 0 0 0 0 0 0 0 0 0 0 0 0 127 0" result="hardAlpha"/>
<feOffset dy="6.29261"/>
<feGaussianBlur stdDeviation="3.1463"/>
<feComposite in2="hardAlpha" operator="arithmetic" k2="-1" k3="1"/>
<feColorMatrix type="matrix" values="0 0 0 0 1 0 0 0 0 1 0 0 0 0 1 0 0 0 0.15 0"/>
<feBlend mode="normal" in2="shape" result="effect2_innerShadow"/>
<feColorMatrix in="SourceAlpha" type="matrix" values="0 0 0 0 0 0 0 0 0 0 0 0 0 0 0 0 0 0 127 0" result="hardAlpha"/>
<feOffset dx="-3.1463" dy="-3.1463"/>
<feGaussianBlur stdDeviation="3.1463"/>
<feComposite in2="hardAlpha" operator="arithmetic" k2="-1" k3="1"/>
<feColorMatrix type="matrix" values="0 0 0 0 0 0 0 0 0 0 0 0 0 0 0 0 0 0 0.04 0"/>
<feBlend mode="normal" in2="effect2_innerShadow" result="effect3_innerShadow"/>
</filter>
<pattern id="pattern0" patternContentUnits="objectBoundingBox" width="34.6835" height="22.5929">
<use xlink:href="#image0" transform="scale(0.0201648 0.0209193)"/>
</pattern>
<filter id="filter1_b" x="-93.8909" y="-94.0156" width="276.434" height="278.714" filterUnits="userSpaceOnUse" color-interpolation-filters="sRGB">
<feFlood flood-opacity="0" result="BackgroundImageFix"/>
<feGaussianBlur in="BackgroundImage" stdDeviation="47.1946"/>
<feComposite in2="SourceAlpha" operator="in" result="effect1_backgroundBlur"/>
<feBlend mode="normal" in="SourceGraphic" in2="effect1_backgroundBlur" result="shape"/>
</filter>
<linearGradient id="paint0_linear" x1="28.0158" y1="110.474" x2="81.5842" y2="161.494" gradientUnits="userSpaceOnUse">
<stop stop-color="#1162FF"/>
<stop offset="0.552083" stop-color="#9137EF"/>
<stop offset="1" stop-color="#FF35D3"/>
</linearGradient>
<linearGradient id="paint1_linear" x1="16.1017" y1="85.5752" x2="108.229" y2="126.499" gradientUnits="userSpaceOnUse">
<stop stop-color="white"/>
<stop offset="1" stop-opacity="0"/>
</linearGradient>
<linearGradient id="paint2_linear" x1="13.3513" y1="82.15" x2="69.4821" y2="114.314" gradientUnits="userSpaceOnUse">
<stop stop-color="white"/>
<stop offset="1" stop-color="white" stop-opacity="0"/>
</linearGradient>
<clipPath id="clip0">
<rect x="13.3513" y="86.0493" width="73.6878" height="75.2009" rx="10.273" transform="rotate(-100.045 13.3513 86.0493)" fill="white"/>
</clipPath>
<clipPath id="clip1">
</clipPath>
</defs>
</svg>
