<svg viewBox="0 0 88 86" fill="none" xmlns="http://www.w3.org/2000/svg" xmlns:xlink="http://www.w3.org/1999/xlink">
<g filter="url(#filter0_dii)">
<g clip-path="url(#clip0)">
<rect x="13.3513" y="85.7271" width="73.6878" height="75.2009" rx="10.273" transform="rotate(-100.045 13.3513 85.7271)" fill="white"/>
<g opacity="0.69">
<rect x="14.106" y="89.9878" width="78.0147" height="75.2009" transform="rotate(-100.045 14.106 89.9878)" fill="url(#pattern0)"/>
<g filter="url(#filter1_b)">
<rect x="14.1057" y="89.9868" width="78.0147" height="75.2009" transform="rotate(-100.045 14.1057 89.9868)" fill="url(#paint0_linear)"/>
</g>
</g>
<g style="mix-blend-mode:overlay" opacity="0.72">
<rect x="13.5718" y="86.9717" width="74.9515" height="75.2009" transform="rotate(-100.045 13.5718 86.9717)" fill="url(#paint1_linear)"/>
</g>
<path d="M27.2861 56.7359L27.2861 59.7544L4.12858 59.7544L4.12858 57.349L17.8533 43.9073C19.5826 42.2094 20.746 40.7473 21.3434 39.5211C21.9723 38.2634 22.2867 37.0056 22.2867 35.7479C22.2867 33.7985 21.6107 32.2893 20.2586 31.2202C18.9381 30.1197 17.0358 29.5695 14.5518 29.5695C10.6844 29.5695 7.6816 30.7957 5.5435 33.2483L3.13814 31.173C4.42728 29.6638 6.0623 28.5004 8.04319 27.6829C10.0555 26.8654 12.3194 26.4566 14.8348 26.4566C18.1992 26.4566 20.8561 27.2584 22.8055 28.862C24.7864 30.4341 25.7768 32.6037 25.7768 35.3706C25.7768 37.0685 25.3995 38.7036 24.6449 40.2757C23.8903 41.8478 22.4596 43.6558 20.353 45.6995L9.12796 56.7359L27.2861 56.7359ZM44.5223 60.0374C41.9754 60.0374 39.6958 59.3614 37.6835 58.0093C35.7026 56.6573 34.1462 54.7236 33.0143 52.2082C31.9138 49.6613 31.3635 46.6743 31.3635 43.247C31.3635 39.8198 31.9138 36.8484 33.0143 34.333C34.1462 31.7862 35.7026 29.8367 37.6835 28.4847C39.6958 27.1327 41.9754 26.4566 44.5223 26.4566C47.0691 26.4566 49.333 27.1327 51.3139 28.4847C53.3262 29.8367 54.8984 31.7862 56.0303 34.333C57.1622 36.8484 57.7282 39.8198 57.7282 43.247C57.7282 46.6743 57.1622 49.6613 56.0303 52.2082C54.8984 54.7236 53.3262 56.6573 51.3139 58.0093C49.333 59.3614 47.0691 60.0374 44.5223 60.0374ZM44.5223 56.9246C46.4403 56.9246 48.1225 56.39 49.5688 55.321C51.0466 54.2519 52.1943 52.6955 53.0118 50.6518C53.8293 48.608 54.2381 46.1397 54.2381 43.247C54.2381 40.3543 53.8293 37.886 53.0118 35.8423C52.1943 33.7985 51.0466 32.2421 49.5688 31.173C48.1225 30.104 46.4403 29.5695 44.5223 29.5695C42.6043 29.5695 40.9064 30.104 39.4286 31.173C37.9822 32.2421 36.8503 33.7985 36.0328 35.8423C35.2153 37.886 34.8065 40.3543 34.8065 43.247C34.8065 46.1397 35.2153 48.608 36.0328 50.6518C36.8503 52.6955 37.9822 54.2519 39.4286 55.321C40.9064 56.39 42.6043 56.9246 44.5223 56.9246ZM84.325 44.6619L75.5525 44.6619L75.5525 53.2458L72.5812 53.2458L72.5812 44.6619L63.8087 44.6619L63.8087 41.8793L72.5812 41.8793L72.5812 33.2483L75.5525 33.2483L75.5525 41.8793L84.325 41.8793L84.325 44.6619Z" fill="white"/>
</g>
<rect x="13.8216" y="85.0543" width="72.527" height="74.0401" rx="9.69256" transform="rotate(-100.045 13.8216 85.0543)" stroke="url(#paint2_linear)" stroke-width="1.16085"/>
</g>
<defs>
<filter id="filter0_dii" x="-213.45" y="-69.1669" width="514.798" height="513.572" filterUnits="userSpaceOnUse" color-interpolation-filters="sRGB">
<feFlood flood-opacity="0" result="BackgroundImageFix"/>
<feColorMatrix in="SourceAlpha" type="matrix" values="0 0 0 0 0 0 0 0 0 0 0 0 0 0 0 0 0 0 127 0"/>
<feOffset dy="144.73"/>
<feGaussianBlur stdDeviation="106.974"/>
<feColorMatrix type="matrix" values="0 0 0 0 0 0 0 0 0 0 0 0 0 0 0 0 0 0 0.05 0"/>
<feBlend mode="normal" in2="BackgroundImageFix" result="effect1_dropShadow"/>
<feBlend mode="normal" in="SourceGraphic" in2="effect1_dropShadow" result="shape"/>
<feColorMatrix in="SourceAlpha" type="matrix" values="0 0 0 0 0 0 0 0 0 0 0 0 0 0 0 0 0 0 127 0" result="hardAlpha"/>
<feOffset dy="6.29261"/>
<feGaussianBlur stdDeviation="3.1463"/>
<feComposite in2="hardAlpha" operator="arithmetic" k2="-1" k3="1"/>
<feColorMatrix type="matrix" values="0 0 0 0 1 0 0 0 0 1 0 0 0 0 1 0 0 0 0.15 0"/>
<feBlend mode="normal" in2="shape" result="effect2_innerShadow"/>
<feColorMatrix in="SourceAlpha" type="matrix" values="0 0 0 0 0 0 0 0 0 0 0 0 0 0 0 0 0 0 127 0" result="hardAlpha"/>
<feOffset dx="-3.1463" dy="-3.1463"/>
<feGaussianBlur stdDeviation="3.1463"/>
<feComposite in2="hardAlpha" operator="arithmetic" k2="-1" k3="1"/>
<feColorMatrix type="matrix" values="0 0 0 0 0 0 0 0 0 0 0 0 0 0 0 0 0 0 0.04 0"/>
<feBlend mode="normal" in2="effect2_innerShadow" result="effect3_innerShadow"/>
</filter>
<pattern id="pattern0" patternContentUnits="objectBoundingBox" width="34.6835" height="22.5929">
</pattern>
<filter id="filter1_b" x="-93.8911" y="-94.3378" width="276.434" height="278.714" filterUnits="userSpaceOnUse" color-interpolation-filters="sRGB">
<feFlood flood-opacity="0" result="BackgroundImageFix"/>
<feGaussianBlur in="BackgroundImage" stdDeviation="47.1946"/>
<feComposite in2="SourceAlpha" operator="in" result="effect1_backgroundBlur"/>
<feBlend mode="normal" in="SourceGraphic" in2="effect1_backgroundBlur" result="shape"/>
</filter>
<linearGradient id="paint0_linear" x1="28.0157" y1="110.152" x2="81.5841" y2="161.172" gradientUnits="userSpaceOnUse">
<stop stop-color="#1162FF"/>
<stop offset="0.552083" stop-color="#9137EF"/>
<stop offset="1" stop-color="#FF35D3"/>
</linearGradient>
<linearGradient id="paint1_linear" x1="15.4891" y1="82.2368" x2="105.137" y2="120.496" gradientUnits="userSpaceOnUse">
<stop stop-color="white"/>
<stop offset="1" stop-opacity="0"/>
</linearGradient>
<linearGradient id="paint2_linear" x1="13.3513" y1="81.8277" x2="69.4821" y2="113.992" gradientUnits="userSpaceOnUse">
<stop stop-color="white"/>
<stop offset="1" stop-color="white" stop-opacity="0"/>
</linearGradient>
<clipPath id="clip0">
<rect x="13.3513" y="85.7271" width="73.6878" height="75.2009" rx="10.273" transform="rotate(-100.045 13.3513 85.7271)" fill="white"/>
</clipPath>
</defs>
</svg>
