<svg width="88" height="87" viewBox="0 0 88 87" fill="none" xmlns="http://www.w3.org/2000/svg" xmlns:xlink="http://www.w3.org/1999/xlink">
<g opacity="0.8" filter="url(#filter0_dii)">
<g clip-path="url(#clip0)">
<rect x="13.3511" y="86.0293" width="73.6878" height="75.2009" rx="10.273" transform="rotate(-100.045 13.3511 86.0293)" fill="white"/>
<g clip-path="url(#clip1)">
</g>
<rect x="13.4685" y="91.2018" width="79.5878" height="76.7741" transform="rotate(-100.045 13.4685 91.2018)" stroke="black" stroke-width="1.57315"/>
<g opacity="0.69">
<rect x="14.1058" y="90.29" width="78.0147" height="75.2009" transform="rotate(-100.045 14.1058 90.29)" fill="url(#pattern0)"/>
<g filter="url(#filter1_b)">
<rect x="14.1057" y="90.2891" width="78.0147" height="75.2009" transform="rotate(-100.045 14.1057 90.2891)" fill="url(#paint0_linear)"/>
</g>
</g>
<g style="mix-blend-mode:overlay" opacity="0.72">
<rect x="14.1058" y="90.29" width="78.0147" height="75.2009" transform="rotate(-100.045 14.1058 90.29)" fill="url(#paint1_linear)"/>
</g>
<path d="M29.4429 41.0645C31.6125 41.0645 33.5305 41.4732 35.1969 42.2907C36.8948 43.1082 38.2154 44.2716 39.1587 45.7809C40.102 47.2587 40.5736 48.988 40.5736 50.9689C40.5736 52.9812 40.0863 54.7577 39.1115 56.2984C38.1368 57.8391 36.7848 59.0339 35.0554 59.8829C33.3575 60.7004 31.4395 61.1092 29.3014 61.1092C24.9309 61.1092 21.5823 59.6785 19.2555 56.8172C16.9288 53.9245 15.7654 49.8527 15.7654 44.6018C15.7654 40.923 16.3942 37.8102 17.6519 35.2633C18.9097 32.7165 20.6704 30.7985 22.9343 29.5093C25.1982 28.1887 27.8394 27.5284 30.8579 27.5284C34.1279 27.5284 36.7376 28.1258 38.6871 29.3207L37.3193 32.0562C35.7472 31.0186 33.6091 30.4998 30.905 30.4998C27.2577 30.4998 24.3964 31.6631 22.3212 33.9899C20.246 36.2852 19.2084 39.6338 19.2084 44.0358C19.2084 44.8219 19.2555 45.718 19.3499 46.7242C20.1674 44.9319 21.4722 43.5484 23.2645 42.5737C25.0567 41.5676 27.1162 41.0645 29.4429 41.0645ZM29.16 58.2322C31.5496 58.2322 33.4833 57.5876 34.9611 56.2984C36.4704 54.9778 37.225 53.2328 37.225 51.0632C37.225 48.8937 36.4704 47.1643 34.9611 45.8752C33.4833 44.5861 31.471 43.9415 28.9241 43.9415C27.2577 43.9415 25.7799 44.2559 24.4907 44.8848C23.233 45.5136 22.2426 46.3783 21.5194 47.4788C20.7962 48.5793 20.4346 49.8055 20.4346 51.1576C20.4346 52.4153 20.7648 53.5786 21.4251 54.6477C22.1168 55.7167 23.123 56.5814 24.4436 57.2417C25.7641 57.902 27.3363 58.2322 29.16 58.2322ZM66.1015 45.7337L57.329 45.7337L57.329 54.3175L54.3577 54.3175L54.3577 45.7337L45.5852 45.7337L45.5852 42.951L54.3577 42.951L54.3577 34.32L57.329 34.32L57.329 42.951L66.1015 42.951L66.1015 45.7337Z" fill="white"/>
</g>
<rect x="13.8214" y="85.3565" width="72.527" height="74.0401" rx="9.69256" transform="rotate(-100.045 13.8214 85.3565)" stroke="url(#paint2_linear)" stroke-width="1.16085"/>
</g>
<defs>
<filter id="filter0_dii" x="-213.451" y="-68.8647" width="514.798" height="513.572" filterUnits="userSpaceOnUse" color-interpolation-filters="sRGB">
<feFlood flood-opacity="0" result="BackgroundImageFix"/>
<feColorMatrix in="SourceAlpha" type="matrix" values="0 0 0 0 0 0 0 0 0 0 0 0 0 0 0 0 0 0 127 0"/>
<feOffset dy="144.73"/>
<feGaussianBlur stdDeviation="106.974"/>
<feColorMatrix type="matrix" values="0 0 0 0 0 0 0 0 0 0 0 0 0 0 0 0 0 0 0.05 0"/>
<feBlend mode="normal" in2="BackgroundImageFix" result="effect1_dropShadow"/>
<feBlend mode="normal" in="SourceGraphic" in2="effect1_dropShadow" result="shape"/>
<feColorMatrix in="SourceAlpha" type="matrix" values="0 0 0 0 0 0 0 0 0 0 0 0 0 0 0 0 0 0 127 0" result="hardAlpha"/>
<feOffset dy="6.29261"/>
<feGaussianBlur stdDeviation="3.1463"/>
<feComposite in2="hardAlpha" operator="arithmetic" k2="-1" k3="1"/>
<feColorMatrix type="matrix" values="0 0 0 0 1 0 0 0 0 1 0 0 0 0 1 0 0 0 0.15 0"/>
<feBlend mode="normal" in2="shape" result="effect2_innerShadow"/>
<feColorMatrix in="SourceAlpha" type="matrix" values="0 0 0 0 0 0 0 0 0 0 0 0 0 0 0 0 0 0 127 0" result="hardAlpha"/>
<feOffset dx="-3.1463" dy="-3.1463"/>
<feGaussianBlur stdDeviation="3.1463"/>
<feComposite in2="hardAlpha" operator="arithmetic" k2="-1" k3="1"/>
<feColorMatrix type="matrix" values="0 0 0 0 0 0 0 0 0 0 0 0 0 0 0 0 0 0 0.04 0"/>
<feBlend mode="normal" in2="effect2_innerShadow" result="effect3_innerShadow"/>
</filter>
<pattern id="pattern0" patternContentUnits="objectBoundingBox" width="34.6835" height="22.5929">
</pattern>
<filter id="filter1_b" x="-93.8911" y="-94.0356" width="276.434" height="278.714" filterUnits="userSpaceOnUse" color-interpolation-filters="sRGB">
<feFlood flood-opacity="0" result="BackgroundImageFix"/>
<feGaussianBlur in="BackgroundImage" stdDeviation="47.1946"/>
<feComposite in2="SourceAlpha" operator="in" result="effect1_backgroundBlur"/>
<feBlend mode="normal" in="SourceGraphic" in2="effect1_backgroundBlur" result="shape"/>
</filter>
<linearGradient id="paint0_linear" x1="28.0157" y1="110.454" x2="81.5841" y2="161.474" gradientUnits="userSpaceOnUse">
<stop stop-color="#1162FF"/>
<stop offset="0.552083" stop-color="#9137EF"/>
<stop offset="1" stop-color="#FF35D3"/>
</linearGradient>
<linearGradient id="paint1_linear" x1="16.1016" y1="85.5552" x2="108.229" y2="126.479" gradientUnits="userSpaceOnUse">
<stop stop-color="white"/>
<stop offset="1" stop-opacity="0"/>
</linearGradient>
<linearGradient id="paint2_linear" x1="13.3511" y1="82.13" x2="69.4818" y2="114.294" gradientUnits="userSpaceOnUse">
<stop stop-color="white"/>
<stop offset="1" stop-color="white" stop-opacity="0"/>
</linearGradient>
<clipPath id="clip0">
<rect x="13.3511" y="86.0293" width="73.6878" height="75.2009" rx="10.273" transform="rotate(-100.045 13.3511 86.0293)" fill="white"/>
</clipPath>
<clipPath id="clip1">
</clipPath>
</defs>
</svg>
